#!OML:ASF H:\Terrain\Patient Classification 1\Takeo\Monday\TakeoMonday.ASF
:FULLY-SPECIFIED
:DEGREES
1759
root 10.6861 17.1897 -3.21259 -21.7801 -74.7562 19.4018
lowerback 9.35107 -4.04519 -2.18054
upperback 5.7384 -5.73791 -2.28935
thorax 0.709146 -2.97429 -0.65802
lowerneck -4.60015 17.4672 7.47741
upperneck 0.637471 23.4421 -13.0834
head 3.3351 11.4387 -3.59008
rclavicle -1.25731e-014 6.75868e-015
rhumerus 25.7695 26.0317 -89.2286
rradius 49.807
rwrist 33.1457
rhand -29.6561 5.84583
rfingers 7.12502
rthumb -2.98537 -24.113
lclavicle -1.25731e-014 6.75868e-015
lhumerus 39.4007 1.07384 104.224
lradius 41.4989
lwrist 72.2297
lhand -9.90717 26.2971
lfingers 7.12502
lthumb 16.073 55.6504
rfemur -15.9693 23.6741 13.0763
rtibia 40.2144
rfoot -18.8874 0.472589
rtoes -12.4338
lfemur -10.5898 32.2383 -14.4029
ltibia 37.6957
lfoot -19.151 27.7111
ltoes 8.54606
1760
root 10.6837 17.1871 -3.2059 -22.8526 -75.8469 20.6607
lowerback 9.22852 -4.07505 -2.06575
upperback 5.73054 -5.76707 -2.31539
thorax 0.753774 -2.98666 -0.754661
lowerneck -4.59607 17.5754 7.42454
upperneck 0.623502 23.5987 -13.2498
head 3.36092 11.5112 -3.61124
rclavicle 5.20816e-014 3.97569e-016
rhumerus 25.0944 25.1678 -90.2898
rradius 49.794
rwrist 33.4001
rhand -29.6646 6.22238
rfingers 7.12502
rthumb -2.99357 -23.7364
lclavicle 5.20816e-014 3.97569e-016
lhumerus 39.0297 0.595201 103.706
lradius 41.8612
lwrist 71.9073
lhand -9.168 27.0774
lfingers 7.12502
lthumb 16.7847 56.3719
rfemur -16.4603 24.2537 13.0025
rtibia 40.193
rfoot -18.6401 0.820679
rtoes -12.558
lfemur -10.4459 32.8818 -14.2808
ltibia 37.7466
lfoot -20.4413 27.4478
ltoes 11.7886
1761
root 10.6807 17.1856 -3.19527 -25.0037 -76.7403 22.7375
lowerback 9.31089 -4.18072 -2.21579
upperback 5.88439 -5.92872 -2.34984
thorax 0.881154 -3.07731 -0.696798
lowerneck -4.8283 17.7112 7.2356
upperneck 0.623043 23.7927 -13.454
head 3.42116 11.5893 -3.60091
rclavicle 3.08116e-014 -2.06736e-014
rhumerus 25.0153 25.392 -90.3166
rradius 49.9079
rwrist 32.7098
rhand -29.5097 6.36937
rfingers 7.12502
rthumb -2.84397 -23.5914
lclavicle 3.08116e-014 -2.06736e-014
lhumerus 39.1018 0.47203 103.534
lradius 41.88
lwrist 71.0546
lhand -8.97031 27.2187
lfingers 7.12502
lthumb 16.975 56.497
rfemur -16.5446 24.6455 12.8194
rtibia 40.1356
rfoot -18.6153 1.14459
rtoes -13.6788
lfemur -9.95238 33.4427 -14.2144
ltibia 37.7513
lfoot -21.4692 27.3514
ltoes 14.1522
1762
root 10.6761 17.188 -3.18384 -26.2167 -77.6104 23.8908
lowerback 9.38669 -4.20339 -2.05838
upperback 5.98466 -5.955 -2.38386
thorax 0.924618 -3.09011 -0.814873
lowerneck -4.51134 17.7762 7.61457
upperneck 0.261958 23.8721 -14.0253
head 3.38899 11.6399 -3.82705
rclavicle 1.95306e-014 -6.36111e-015
rhumerus 24.6078 25.262 -90.5777
rradius 50.153
rwrist 32.2582
rhand -29.6435 6.71027
rfingers 7.12502
rthumb -2.97315 -23.2487
lclavicle 1.95306e-014 -6.36111e-015
lhumerus 39.3129 -0.0620544 103.366
lradius 41.522
lwrist 70.539
lhand -8.96094 26.8449
lfingers 7.12502
lthumb 16.984 56.1223
rfemur -16.6408 24.7785 12.8772
rtibia 40.0715
rfoot -18.635 1.83588
rtoes -14.1894
lfemur -9.55806 33.8976 -13.922
ltibia 37.6965
lfoot -21.9621 27.5177
ltoes 15.012
1763
root 10.677 17.1973 -3.16608 -27.9831 -78.4868 25.9386
lowerback 9.17629 -4.10647 -1.90906
upperback 5.96869 -5.8095 -2.40518
thorax 1.00533 -3.01335 -0.946725
lowerneck -4.1621 17.7746 7.95653
upperneck -0.0641155 23.87 -14.614
head 3.35337 11.6512 -4.06467
rclavicle 8.49307e-014 9.93923e-016
rhumerus 24.0734 24.9428 -90.7332
rradius 50.3979
rwrist 31.7043
rhand -30.0947 6.58546
rfingers 7.12502
rthumb -3.40893 -23.367
lclavicle 8.49307e-014 9.93923e-016
lhumerus 39.1938 -0.799239 103.055
lradius 41.4619
lwrist 70.4294
lhand -9.00963 26.7071
lfingers 7.12502
lthumb 16.9372 55.9886
rfemur -17.2074 24.7468 12.607
rtibia 40.0205
rfoot -18.5203 2.69847
rtoes -14.6118
lfemur -9.56087 34.3958 -14.0441
ltibia 37.5988
lfoot -22.4694 27.6899
ltoes 15.5121
1764
root 10.6772 17.2028 -3.15581 -32.3364 -79.2374 30.5249
lowerback 8.90993 -3.99946 -2.4361
upperback 6.07228 -5.69996 -2.36163
thorax 1.31538 -2.9788 -0.650347
lowerneck -4.48964 17.8541 7.7309
upperneck 0.087903 24.0052 -14.8847
head 3.47558 11.6879 -4.05711
rclavicle -7.5737e-014 1.2921e-014
rhumerus 23.9994 25.0096 -90.6114
rradius 50.2903
rwrist 30.7381
rhand -30.5939 5.45577
rfingers 7.12502
rthumb -3.89101 -24.4884
lclavicle -7.5737e-014 1.2921e-014
lhumerus 39.1748 -1.12097 102.922
lradius 41.5376
lwrist 70.0694
lhand -8.39848 27.4982
lfingers 7.12502
lthumb 17.5254 56.7282
rfemur -17.7431 24.8021 11.9309
rtibia 39.9737
rfoot -18.4098 3.62863
rtoes -14.9151
lfemur -9.47054 34.9406 -14.5583
ltibia 37.5211
lfoot -22.7116 28.0843
ltoes 15.7715
1765
root 10.6692 17.2013 -3.15593 -35.4977 -79.9595 33.6634
lowerback 8.82771 -4.01669 -2.53069
upperback 6.23022 -5.73271 -2.40377
thorax 1.53048 -3.00433 -0.655471
lowerneck -4.91304 17.9598 7.60927
upperneck 0.363968 24.1724 -14.9556
head 3.63882 11.7359 -3.98981
rclavicle 4.02539e-014 2.82274e-014
rhumerus 26.184 29.8168 -84.7319
rradius 51.0859
rwrist 23.2768
rhand -32.054 1.37302
rfingers 7.12502
rthumb -5.30085 -28.5407
lclavicle 4.02539e-014 2.82274e-014
lhumerus 39.3092 -1.43226 102.535
lradius 41.3151
lwrist 69.1007
lhand -7.38295 27.7899
lfingers 7.12502
lthumb 18.5025 56.93
rfemur -17.92 25.1534 11.8001
rtibia 39.9341
rfoot -18.0907 4.32294
rtoes -13.993
lfemur -9.15674 35.2123 -14.5293
ltibia 37.4384
lfoot -22.9292 28.5651
ltoes 15.9594
1766
root 10.6668 17.2054 -3.14783 -36.3092 -80.6966 34.4624
lowerback 9.03664 -4.18701 -1.84195
upperback 6.202 -5.92244 -2.55486
thorax 1.30191 -3.07649 -1.15318
lowerneck -5.06483 18.0458 7.72909
upperneck 0.541546 24.2942 -14.9077
head 3.73656 11.7829 -3.9525
rclavicle 3.11098e-014 1.17283e-014
rhumerus 24.0042 26.466 -89.7989
rradius 50.5169
rwrist 27.0434
rhand -30.9692 3.39793
rfingers 7.12502
rthumb -4.2534 -26.5393
lclavicle 3.11098e-014 1.17283e-014
lhumerus 39.2063 -1.72435 101.847
lradius 41.1332
lwrist 68.0105
lhand -7.86767 27.2888
lfingers 7.12502
lthumb 18.0362 56.4725
rfemur -18.031 25.6174 12.1016
rtibia 39.8578
rfoot -17.6727 4.60139
rtoes -12.9669
lfemur -8.93564 35.2549 -14.1504
ltibia 37.3591
lfoot -23.4115 28.9023
ltoes 16.2265
1767
root 10.6709 17.2098 -3.13426 -39.0377 -81.3279 37.2856
lowerback 9.32308 -4.17955 -1.96515
upperback 6.08219 -5.92922 -2.33843
thorax 1.05606 -3.0837 -0.832683
lowerneck -5.30089 18.0731 7.45469
upperneck 0.859592 24.3703 -14.8538
head 3.8389 11.7954 -3.86298
rclavicle -3.31473e-014 9.93923e-016
rhumerus 22.9752 25.5427 -91.1423
rradius 50.5502
rwrist 27.4181
rhand -30.5642 4.38108
rfingers 7.12502
rthumb -3.86234 -25.5637
lclavicle -3.31473e-014 9.93923e-016
lhumerus 39.0721 -1.64807 102.148
lradius 41.023
lwrist 66.8389
lhand -9.10149 27.5854
lfingers 7.12502
lthumb 16.8487 56.8744
rfemur -18.2532 25.9531 11.9895
rtibia 39.7021
rfoot -17.5493 4.77281
rtoes -13.569
lfemur -8.81175 35.4602 -14.1881
ltibia 37.2828
lfoot -23.6428 29.3423
ltoes 15.6327
